<svg width="40" height="41" viewBox="0 0 40 41" fill="none" xmlns="http://www.w3.org/2000/svg">
<g clip-path="url(#clip0_84_190)">
<path d="M25.7152 17.1632L18.6188 24.2596L14.9401 20.584C14.1416 19.7855 12.846 19.7855 12.0475 20.584C11.249 21.3825 11.249 22.6781 12.0475 23.4766L17.2082 28.6374C17.985 29.4141 19.2464 29.4141 20.0232 28.6374L28.6047 20.0558C29.4032 19.2573 29.4032 17.9617 28.6047 17.1632C27.8062 16.3647 26.5137 16.3647 25.7152 17.1632Z" fill="#FFFCEE"/>
<path fill-rule="evenodd" clip-rule="evenodd" d="M24.7466 0.271729C26.9836 0.271729 29.2207 1.26597 30.5877 3.13017L36.6775 10.7112C37.6717 12.0783 38.2931 13.694 38.2931 15.3096V32.5845C38.2931 36.6857 34.9375 40.0413 30.8363 40.0413H10.9515C6.85028 40.0413 3.49472 36.6857 3.49472 32.5845V7.72853C3.49472 3.62729 6.85028 0.271729 10.9515 0.271729H24.7466ZM28.5993 14.3154C26.3622 12.0783 22.8824 11.8298 20.3968 13.8182C19.8997 14.1911 19.7754 15.061 20.1482 15.5582C20.5211 16.0553 21.391 16.1796 21.8882 15.8067C23.3795 14.6882 25.4923 14.8125 26.7351 16.1796C28.2264 17.6709 28.2264 20.0322 26.7351 21.3993L22.3853 25.7491L20.2725 27.8619L20.1482 27.9862C18.6569 29.3532 16.4198 29.229 15.0528 27.8619C13.6857 26.4948 13.5614 24.2578 14.9285 22.7664L15.0528 22.6421L17.9112 19.7837L18.0355 19.6594C18.5326 19.2866 19.2783 19.2866 19.6511 19.7837C20.1482 20.2808 20.1482 21.0265 19.6511 21.5236L16.7927 24.382L16.6684 24.5063C16.2956 25.0034 16.2956 25.7491 16.7927 26.122C17.2898 26.6191 18.0355 26.6191 18.5326 26.122L21.391 23.2635L21.5153 23.1392C22.7581 21.6479 22.7581 19.4108 21.391 18.0438C19.8997 16.5524 17.5384 16.5524 16.1713 18.0438L15.0528 19.1623L14.9285 19.2866L14.1828 20.0322L13.3128 20.9022C10.8272 23.3878 10.8272 27.2405 13.3128 29.7261C15.7984 32.2117 19.6511 32.2117 22.1367 29.7261L24.9951 26.8676L25.1194 26.7434L28.7235 23.1392L28.9721 22.8907C30.9606 20.5294 30.9606 16.6767 28.5993 14.3154Z" fill="#B24D00"/>
</g>
<defs>
<clipPath id="clip0_84_190">
<rect width="39.7696" height="39.7696" fill="white" transform="translate(0.085907 0.656494)"/>
</clipPath>
</defs>
</svg>
