<svg width="41" height="40" viewBox="0 0 41 40" fill="none" xmlns="http://www.w3.org/2000/svg">
<g clip-path="url(#clip0_84_142)">
<path d="M24.5869 0.102783H5.94495C4.57219 0.102783 3.45935 1.21562 3.45935 2.58838V29.93C3.45935 31.3027 4.57219 32.4156 5.94495 32.4156H24.5869C25.9597 32.4156 27.0725 31.3027 27.0725 29.93V2.58838C27.0725 1.21562 25.9597 0.102783 24.5869 0.102783Z" fill="#50D9D7"/>
<path d="M27.0725 3.83118V29.93C27.0725 30.5892 26.8107 31.2214 26.3445 31.6875C25.8784 32.1537 25.2462 32.4156 24.5869 32.4156H8.43054V7.55958C8.43054 6.57074 8.82335 5.62241 9.52256 4.9232C10.2218 4.22399 11.1701 3.83118 12.1589 3.83118H27.0725Z" fill="#00BEBD"/>
<path d="M33.2865 10.6666V34.9012C33.2865 35.5604 33.0247 36.1926 32.5585 36.6588C32.0924 37.1249 31.4602 37.3868 30.8009 37.3868H12.1589C11.4997 37.3868 10.8675 37.1249 10.4014 36.6588C9.93521 36.1926 9.67334 35.5604 9.67334 34.9012V7.55957C9.67334 6.90035 9.93521 6.26813 10.4014 5.80199C10.8675 5.33585 11.4997 5.07397 12.1589 5.07397H27.6939L33.2865 10.6666Z" fill="#F3F3F3"/>
<path d="M33.2866 10.6666H28.9368C28.6072 10.6666 28.291 10.5356 28.058 10.3026C27.8249 10.0695 27.694 9.75338 27.694 9.42377V5.07397L33.2866 10.6666Z" fill="#D9D9D9"/>
<path d="M29.5581 32.4156C29.2291 32.4142 28.914 32.2823 28.682 32.0489L20.6038 23.9707C20.4002 23.733 20.2938 23.4272 20.3059 23.1144C20.3179 22.8016 20.4476 22.5049 20.6689 22.2836C20.8903 22.0622 21.187 21.9326 21.4998 21.9205C21.8125 21.9084 22.1184 22.0148 22.3561 22.2184L30.4343 30.2966C30.6071 30.4704 30.7246 30.6914 30.7721 30.9317C30.8197 31.1721 30.7951 31.4212 30.7014 31.6477C30.6078 31.8741 30.4493 32.0678 30.2459 32.2045C30.0425 32.3411 29.8032 32.4145 29.5581 32.4156Z" fill="#50D9D7"/>
<path d="M21.4799 32.4156C26.6278 32.4156 30.8009 28.2424 30.8009 23.0946C30.8009 17.9467 26.6278 13.7736 21.4799 13.7736C16.3321 13.7736 12.1589 17.9467 12.1589 23.0946C12.1589 28.2424 16.3321 32.4156 21.4799 32.4156Z" fill="#50D9D7"/>
<path d="M21.4799 30.5514C25.5982 30.5514 28.9367 27.2129 28.9367 23.0946C28.9367 18.9763 25.5982 15.6378 21.4799 15.6378C17.3617 15.6378 14.0231 18.9763 14.0231 23.0946C14.0231 27.2129 17.3617 30.5514 21.4799 30.5514Z" fill="white"/>
<path d="M30.3598 30.3712L28.7566 31.9744C28.6983 32.0322 28.6521 32.1009 28.6205 32.1766C28.589 32.2523 28.5728 32.3336 28.5728 32.4156C28.5728 32.4976 28.589 32.5788 28.6205 32.6546C28.6521 32.7303 28.6983 32.799 28.7566 32.8568L35.2564 39.3566C35.4175 39.5289 35.6117 39.667 35.8273 39.7626C36.0429 39.8583 36.2755 39.9097 36.5113 39.9136C36.7472 39.9175 36.9814 39.874 37.2001 39.7855C37.4187 39.6971 37.6174 39.5656 37.7841 39.3988C37.9509 39.232 38.0825 39.0333 38.1709 38.8147C38.2594 38.596 38.3029 38.3618 38.299 38.126C38.295 37.8901 38.2437 37.6575 38.148 37.4419C38.0523 37.2263 37.9143 37.0322 37.742 36.871L31.2422 30.3712C31.1844 30.3129 31.1157 30.2667 31.0399 30.2352C30.9642 30.2036 30.883 30.1874 30.801 30.1874C30.7189 30.1874 30.6377 30.2036 30.562 30.2352C30.4863 30.2667 30.4175 30.3129 30.3598 30.3712Z" fill="#FFAC00"/>
<path d="M26.8613 26.2016C26.3159 27.1461 25.5314 27.9305 24.5868 28.4758C23.6422 29.0212 22.5707 29.3083 21.48 29.3083C20.3892 29.3083 19.3177 29.0212 18.3731 28.4758C17.4285 27.9305 16.644 27.1461 16.0986 26.2016C16.7743 25.0399 17.8044 24.1252 19.0379 23.5917C19.7584 24.0806 20.6092 24.3419 21.48 24.3419C22.3507 24.3419 23.2015 24.0806 23.9221 23.5917C25.1555 24.1252 26.1856 25.0399 26.8613 26.2016Z" fill="#FFAC00"/>
<path d="M21.4799 23.0946C23.1959 23.0946 24.5869 21.7036 24.5869 19.9876C24.5869 18.2717 23.1959 16.8806 21.4799 16.8806C19.764 16.8806 18.3729 18.2717 18.3729 19.9876C18.3729 21.7036 19.764 23.0946 21.4799 23.0946Z" fill="#FFAC00"/>
<path d="M12.1589 9.42383H18.3729V10.6666H12.1589V9.42383Z" fill="#D9D9D9"/>
<path d="M12.1589 11.9094H15.8873V13.1522H12.1589V11.9094Z" fill="#D9D9D9"/>
<path d="M12.1589 33.037H15.8873V34.2798H12.1589V33.037Z" fill="#D9D9D9"/>
</g>
<defs>
<clipPath id="clip0_84_142">
<rect width="39.7696" height="39.7696" fill="white" transform="translate(0.973755 0.102783)"/>
</clipPath>
</defs>
</svg>
