<svg width="40" height="41" viewBox="0 0 40 41" fill="none" xmlns="http://www.w3.org/2000/svg">
<g clip-path="url(#clip0_84_280)">
<path d="M39.7069 38.8196H0.254123C0.12098 38.8196 0.013031 38.7117 0.013031 38.5785V8.97278C0.013031 8.83964 0.12098 8.73169 0.254123 8.73169H39.707C39.8401 8.73169 39.9481 8.83964 39.9481 8.97278V38.5786C39.948 38.7118 39.84 38.8196 39.7069 38.8196Z" fill="#F2FBFF"/>
<path d="M2.02188 36.5698V10.9816C2.02188 10.8484 2.12983 10.7405 2.26297 10.7405H37.6982C37.8314 10.7405 37.9393 10.8484 37.9393 10.9816V36.5698C37.9393 36.703 37.8314 36.8109 37.6982 36.8109H2.26289C2.12975 36.8109 2.02188 36.703 2.02188 36.5698Z" fill="#80D261"/>
<path d="M21.3867 27.6727H23.516V19.8785H21.3867C21.1648 19.8785 20.9849 20.0584 20.9849 20.2803V27.271C20.9849 27.4929 21.1648 27.6727 21.3867 27.6727Z" fill="#68CA44"/>
<path d="M20.9848 17.468C20.9848 17.6899 21.1646 17.8698 21.3865 17.8698H23.5159V10.9816C23.5159 10.8484 23.6238 10.7405 23.757 10.7405H20.9848L20.9848 17.468Z" fill="#68CA44"/>
<path d="M23.516 36.5698V29.6815H21.3866C21.1647 29.6815 20.9849 29.8614 20.9849 30.0833V36.8108H20.9045H23.757C23.6239 36.8109 23.516 36.703 23.516 36.5698Z" fill="#68CA44"/>
<path d="M4.63324 36.5698V10.9816C4.63324 10.8484 4.74119 10.7405 4.87433 10.7405H2.26288C2.12974 10.7405 2.02179 10.8484 2.02179 10.9816V36.5698C2.02179 36.703 2.12974 36.8109 2.26288 36.8109H4.87433C4.74119 36.8109 4.63324 36.703 4.63324 36.5698Z" fill="#68CA44"/>
<path d="M20.9849 17.468C20.9849 17.6899 21.1648 17.8698 21.3867 17.8698H25.6052V15.068C25.6052 14.8461 25.4253 14.6663 25.2034 14.6663H20.9849V17.468Z" fill="white"/>
<path d="M21.3867 17.8697H23.516V14.6663H20.9849V17.468C20.9849 17.6899 21.1648 17.8697 21.3867 17.8697Z" fill="#F2FBFF"/>
<path d="M21.6277 32.5044C21.409 32.5044 21.1945 32.5216 20.985 32.5543V36.8108H25.7616C25.7639 36.7549 25.7659 36.699 25.7659 36.6426C25.7658 34.3571 23.9132 32.5044 21.6277 32.5044Z" fill="#01C0FA"/>
<path d="M23.516 36.5697V32.9607C22.9497 32.6697 22.3082 32.5044 21.6277 32.5044C21.409 32.5044 21.1945 32.5216 20.985 32.5543V36.8108H23.757C23.6239 36.8107 23.516 36.7029 23.516 36.5697Z" fill="#08A9F1"/>
<path d="M5.83856 22.7712H2.02188V18.9249H5.59754C5.73068 18.9249 5.83863 19.0329 5.83863 19.166L5.83856 22.7712Z" fill="white"/>
<path d="M2.02188 18.9249H4.63333V22.7712H2.02188V18.9249Z" fill="#F2FBFF"/>
<path d="M18.9761 22.3695V15.9818C14.6919 16.0299 11.0784 18.8717 9.87283 22.7712H18.5744C18.7963 22.7712 18.9761 22.5914 18.9761 22.3695Z" fill="#01C0FA"/>
<path d="M18.9761 17.8006V15.9819C14.6919 16.0301 11.0784 18.8718 9.87283 22.7713H12.2317C13.5831 20.2195 16.0461 18.3479 18.9761 17.8006Z" fill="#08A9F1"/>
<path d="M37.9392 19.8786V17.8698H21.3867C21.1648 17.8698 20.9849 17.6899 20.9849 17.468V10.7405H18.9761V22.3695C18.9761 22.5914 18.7962 22.7713 18.5743 22.7713H2.02188V24.7801H18.5744C18.7963 24.7801 18.9761 24.96 18.9761 25.1819V36.8109H20.985V30.0833C20.985 29.8614 21.1648 29.6816 21.3867 29.6816H37.9392V27.6727H21.3867C21.1648 27.6727 20.9849 27.4929 20.9849 27.271V20.2803C20.9849 20.0584 21.1648 19.8786 21.3867 19.8786H37.9392V19.8786Z" fill="#FAEA5E"/>
<path d="M26.4086 25.3531H23.5963C23.4632 25.3531 23.3553 25.2451 23.3553 25.112V22.2997C23.3553 22.1665 23.4632 22.0586 23.5963 22.0586H26.4086C26.5418 22.0586 26.6497 22.1665 26.6497 22.2997V25.112C26.6497 25.2451 26.5418 25.3531 26.4086 25.3531Z" fill="white"/>
<path d="M24.9623 25.112V22.2997C24.9623 22.1665 25.0703 22.0586 25.2034 22.0586H23.5963C23.4632 22.0586 23.3553 22.1665 23.3553 22.2997V25.112C23.3553 25.2451 23.4632 25.3531 23.5963 25.3531H25.2034C25.0703 25.3531 24.9623 25.2451 24.9623 25.112Z" fill="#F2FBFF"/>
<path d="M35.8099 15.7912H32.9976C32.8644 15.7912 32.7565 15.6832 32.7565 15.5501V12.7378C32.7565 12.6047 32.8644 12.4967 32.9976 12.4967H35.8099C35.943 12.4967 36.051 12.6047 36.051 12.7378V15.5501C36.0509 15.6833 35.943 15.7912 35.8099 15.7912Z" fill="white"/>
<path d="M34.3635 15.5502V12.7379C34.3635 12.6048 34.4714 12.4968 34.6046 12.4968H32.9975C32.8644 12.4968 32.7564 12.6048 32.7564 12.7379V15.5502C32.7564 15.6834 32.8644 15.7913 32.9975 15.7913H34.6046C34.4714 15.7912 34.3635 15.6834 34.3635 15.5502Z" fill="#F2FBFF"/>
<path d="M32.4748 33.0553L34.9831 28.7109C36.1907 26.6193 34.6812 24.0049 32.2661 24.0049C29.851 24.0049 28.3416 26.6193 29.5491 28.7109L32.0574 33.0553C32.15 33.2161 32.382 33.2161 32.4748 33.0553Z" fill="#FD4755"/>
<path d="M31.8637 28.3154C31.4421 28.1534 31.1422 27.7457 31.1422 27.2671C31.1422 26.8287 31.3938 26.45 31.7599 26.2646C32.0188 25.3883 32.6536 24.6368 33.5198 24.2612C33.1419 24.0973 32.7201 24.0049 32.2661 24.0049C29.851 24.0049 28.3416 26.6193 29.5491 28.7109L32.0574 33.0553C32.1501 33.216 32.3821 33.216 32.4749 33.0553L33.5198 31.2454L32.0566 28.7109C31.9815 28.5809 31.9182 28.4487 31.8637 28.3154Z" fill="#FB2B3A"/>
<path d="M32.266 28.3909C32.8867 28.3909 33.3899 27.8878 33.3899 27.2671C33.3899 26.6464 32.8867 26.1432 32.266 26.1432C31.6453 26.1432 31.1422 26.6464 31.1422 27.2671C31.1422 27.8878 31.6453 28.3909 32.266 28.3909Z" fill="white"/>
<path d="M31.9285 27.2671C31.9285 26.7849 32.2327 26.3749 32.6591 26.2154C32.5366 26.1695 32.4046 26.1433 32.266 26.1433C31.6453 26.1433 31.1422 26.6465 31.1422 27.2672C31.1422 27.8879 31.6454 28.3911 32.266 28.3911C32.4046 28.3911 32.5366 28.3648 32.6591 28.319C32.2327 28.1593 31.9285 27.7493 31.9285 27.2671Z" fill="#F2FBFF"/>
<path d="M7.78007 29.837L10.3762 25.3403C11.6262 23.1755 10.0638 20.4694 7.56402 20.4694C5.06426 20.4694 3.50189 23.1754 4.7518 25.3403L7.34797 29.837C7.44398 30.0034 7.68406 30.0034 7.78007 29.837Z" fill="#FD4755"/>
<path d="M7.02521 24.8762C6.65425 24.6819 6.40084 24.2937 6.40084 23.8459C6.40084 23.4408 6.60808 23.0846 6.92202 22.8762C7.18152 21.924 7.86743 21.1053 8.8116 20.7147C8.43323 20.5582 8.01415 20.4694 7.56402 20.4694C5.06426 20.4694 3.50189 23.1754 4.7518 25.3403L7.34797 29.8369C7.44398 30.0033 7.68406 30.0033 7.78015 29.8369L8.8116 28.0503L7.24696 25.3403C7.15898 25.1879 7.08597 25.0328 7.02521 24.8762Z" fill="#FB2B3A"/>
<path d="M7.56402 25.0091C8.20647 25.0091 8.72728 24.4883 8.72728 23.8459C8.72728 23.2034 8.20647 22.6826 7.56402 22.6826C6.92157 22.6826 6.40076 23.2034 6.40076 23.8459C6.40076 24.4883 6.92157 25.0091 7.56402 25.0091Z" fill="white"/>
<path d="M7.18886 23.8459C7.18886 23.3421 7.50982 22.9142 7.95808 22.7526C7.83484 22.7082 7.70255 22.6827 7.56403 22.6827C6.92164 22.6827 6.40085 23.2035 6.40085 23.846C6.40085 24.4885 6.92164 25.0093 7.56403 25.0093C7.70255 25.0093 7.83484 24.9838 7.95808 24.9394C7.50982 24.7776 7.18886 24.3499 7.18886 23.8459Z" fill="#F2FBFF"/>
<path d="M13.7131 34.3526C15.2219 34.3526 16.445 33.1294 16.445 31.6206C16.445 30.1118 15.2219 28.8887 13.7131 28.8887C12.2042 28.8887 10.9811 30.1118 10.9811 31.6206C10.9811 33.1294 12.2042 34.3526 13.7131 34.3526Z" fill="#01C0FA"/>
<path d="M13.3916 31.6206C13.3916 30.5445 14.014 29.6141 14.9183 29.1688C14.5547 28.9897 14.1457 28.8887 13.713 28.8887C12.2042 28.8887 10.981 30.1118 10.981 31.6206C10.981 33.1294 12.2042 34.3526 13.713 34.3526C14.1457 34.3526 14.5547 34.2516 14.9183 34.0725C14.014 33.6271 13.3916 32.6968 13.3916 31.6206Z" fill="#08A9F1"/>
<path d="M2.02188 31.9897V36.5698C2.02188 36.7029 2.12983 36.8109 2.26297 36.8109H6.84301C6.84293 34.1483 4.6845 31.9897 2.02188 31.9897Z" fill="#01C0FA"/>
<path d="M2.26288 36.8109H4.87433C4.74119 36.8109 4.63324 36.7029 4.63324 36.5698V32.7592C3.88056 32.273 2.98452 31.9897 2.02179 31.9897V36.5698C2.02187 36.7029 2.12974 36.8109 2.26288 36.8109Z" fill="#08A9F1"/>
<path d="M37.6981 37.3958H2.26289C1.80746 37.3958 1.43689 37.0253 1.43689 36.5698V10.9815C1.43689 10.5261 1.80746 10.1555 2.26289 10.1555H37.6982C38.1536 10.1555 38.5242 10.5261 38.5242 10.9815V36.5698C38.5241 37.0253 38.1536 37.3958 37.6981 37.3958ZM2.60686 36.2259H37.3542V11.3255H2.60686V36.2259Z" fill="#99E6FC"/>
<path d="M11.5031 15.5386L15.262 9.02788C17.0255 5.97356 14.8212 2.15564 11.2944 2.15564C7.76752 2.15564 5.56322 5.97356 7.32668 9.02788L11.0856 15.5386C11.1783 15.6993 11.4103 15.6993 11.5031 15.5386Z" fill="#FD4755"/>
<path d="M10.4654 8.56188C9.8658 8.2587 9.45436 7.63729 9.45436 6.91948C9.45436 6.27303 9.78803 5.70481 10.2924 5.37668C10.6997 4.08316 11.6699 2.98596 12.9816 2.47047C12.4671 2.2683 11.9002 2.15552 11.2942 2.15552C7.76734 2.15552 5.56304 5.97344 7.3265 9.02776L11.0855 15.5385C11.1783 15.6992 11.4102 15.6992 11.503 15.5385L12.9816 12.9774L10.7012 9.02776C10.6126 8.87426 10.5344 8.71873 10.4654 8.56188Z" fill="#FB2B3A"/>
<path d="M11.2942 8.75934C12.3103 8.75934 13.134 7.93563 13.134 6.91953C13.134 5.90343 12.3103 5.07971 11.2942 5.07971C10.2781 5.07971 9.45435 5.90343 9.45435 6.91953C9.45435 7.93563 10.2781 8.75934 11.2942 8.75934Z" fill="white"/>
<path d="M11.1418 6.91953C11.1418 6.20764 11.5463 5.59068 12.1379 5.28477C11.8851 5.15404 11.5984 5.07971 11.2942 5.07971C10.2781 5.07971 9.45435 5.90345 9.45435 6.91953C9.45435 7.93561 10.2781 8.75934 11.2942 8.75934C11.5984 8.75934 11.8851 8.68509 12.1379 8.55436C11.5463 8.24838 11.1418 7.63141 11.1418 6.91953Z" fill="#F2FBFF"/>
</g>
<defs>
<clipPath id="clip0_84_280">
<rect width="39.9349" height="39.9349" fill="white" transform="translate(0.013031 0.520142)"/>
</clipPath>
</defs>
</svg>
