<svg width="24" height="24" viewBox="0 0 24 24" fill="none" xmlns="http://www.w3.org/2000/svg">
<path d="M2.47118 19.3076V17.0846C2.47118 16.5538 2.60483 16.09 2.87215 15.6932C3.13945 15.2965 3.49426 14.9859 3.93658 14.7615C4.78658 14.3282 5.684 13.9775 6.62885 13.7096C7.57372 13.4417 8.68782 13.3077 9.97115 13.3077C10.4712 13.3077 10.9362 13.3279 11.3664 13.3683C11.7965 13.4087 12.1981 13.4692 12.5711 13.55L11.2443 14.8769C11.0609 14.8435 10.8625 14.8237 10.6491 14.8173C10.4356 14.8109 10.2096 14.8076 9.97115 14.8076C8.78782 14.8076 7.75096 14.9397 6.86058 15.2038C5.97019 15.4679 5.225 15.7666 4.625 16.0999C4.39808 16.2217 4.23238 16.3641 4.12788 16.5269C4.02339 16.6897 3.97115 16.8756 3.97115 17.0846V17.8076H10.0288L11.5288 19.3076H2.47118ZM15.425 20.0538L12.3212 16.95L13.375 15.8961L15.425 17.9461L20.475 12.8961L21.5288 13.95L15.425 20.0538ZM9.97115 11.6922C9.00867 11.6922 8.18472 11.3495 7.4993 10.6641C6.8139 9.97873 6.4712 9.15478 6.4712 8.1923C6.4712 7.2298 6.8139 6.40585 7.4993 5.72045C8.18472 5.03503 9.00867 4.69232 9.97115 4.69232C10.9336 4.69232 11.7576 5.03503 12.443 5.72045C13.1284 6.40585 13.4711 7.2298 13.4711 8.1923C13.4711 9.15478 13.1284 9.97873 12.443 10.6641C11.7576 11.3495 10.9336 11.6922 9.97115 11.6922ZM9.97115 10.1923C10.5212 10.1923 10.992 9.99646 11.3837 9.6048C11.7753 9.21313 11.9712 8.7423 11.9712 8.1923C11.9712 7.6423 11.7753 7.17146 11.3837 6.7798C10.992 6.38813 10.5212 6.1923 9.97115 6.1923C9.42115 6.1923 8.95032 6.38813 8.55865 6.7798C8.16698 7.17146 7.97115 7.6423 7.97115 8.1923C7.97115 8.7423 8.16698 9.21313 8.55865 9.6048C8.95032 9.99646 9.42115 10.1923 9.97115 10.1923Z" fill="#98A4AE"/>
</svg>
