<svg width="40" height="40" viewBox="0 0 40 40" fill="none" xmlns="http://www.w3.org/2000/svg">
<g clip-path="url(#clip0_84_59)">
<path d="M30.9939 11.7789C29.8712 10.3066 28.4545 9.07124 26.8322 8.15802H22.7175L15.791 7.13806C14.2667 7.6566 12.8638 8.43779 11.6366 9.42811L9.66308 15.4866L6.56958 20.0184C6.56958 21.8813 6.9445 23.6566 7.6223 25.2733V25.2731L12.7928 27.7937L15.5086 32.7994L15.5081 32.7998C16.9627 33.3307 18.5332 33.6205 20.1716 33.6205C23.3568 33.6205 26.286 32.5254 28.604 30.6916L29.26 29.3162L31.2168 26.6291L32.4005 17.7606L30.9939 11.7789Z" fill="#62DBFB"/>
<path d="M20.1717 6.41638C18.6386 6.41638 17.1648 6.67024 15.7898 7.1379L17.1448 9.86768C17.613 10.811 18.8249 11.0941 19.6626 10.4559C20.405 9.89017 21.4664 10.0397 22.0236 10.7884L22.1662 10.98C22.5327 11.4725 23.139 11.7252 23.7468 11.6389L24.6344 11.5128C25.2394 11.4268 25.7498 11.0185 25.9664 10.4471L26.8341 8.1581C24.8649 7.04952 22.5924 6.41638 20.1717 6.41638Z" fill="#A2E62E"/>
<path d="M29.2602 29.3162L31.2169 26.6291L32.4006 17.7606L30.9945 11.7809C30.0404 10.5296 28.8754 9.44775 27.5509 8.5907C28.9262 10.7163 29.7252 13.2496 29.7252 15.9698C29.7252 23.482 23.6354 29.5719 16.1231 29.5719C15.273 29.5719 14.4411 29.4939 13.6343 29.3446L15.5087 32.7994L15.5086 32.7996C16.963 33.3305 18.5334 33.6205 20.1718 33.6205C23.3569 33.6205 26.2861 32.5253 28.6041 30.6915L29.2602 29.3162Z" fill="#01D0FB"/>
<path d="M16.5396 31.2033L15.4416 30.1603C15.2464 29.9747 15.127 29.7233 15.1069 29.4546L14.904 26.7507C14.8901 26.5651 14.9241 26.3792 15.0028 26.2106L15.7626 24.5826C15.9508 24.1794 15.8737 23.7021 15.5681 23.3785L14.9488 22.7226C14.7438 22.5056 14.4584 22.3826 14.1598 22.3826H12.8061C12.3224 22.3826 11.8971 22.0624 11.7632 21.5976L11.7075 21.404C11.5077 20.7102 12.0284 20.0184 12.7503 20.0184C13.0765 20.0184 13.3855 19.8717 13.5915 19.6188L14.9793 17.916C15.1371 17.7223 15.2232 17.4801 15.2232 17.2304V15.882C15.2232 15.5288 15.0514 15.1978 14.7625 14.9945L13.2316 13.9173C13.0332 13.7776 12.8872 13.5754 12.8172 13.3431L11.6365 9.4281C8.54658 11.9215 6.56952 15.7388 6.56952 20.0184H7.30061C7.65452 20.0184 7.9886 20.1818 8.20589 20.4611L8.77415 21.1915C8.9723 21.4462 9.05399 21.7727 8.99915 22.0908L8.72155 23.7003C8.68771 23.8965 8.60345 24.0804 8.47703 24.2341L7.62224 25.2731C9.08177 28.7542 11.9472 31.4998 15.5085 32.7995C16.1258 33.0247 16.74 32.6888 16.8308 32.038C16.8746 31.7261 16.7639 31.4163 16.5396 31.2033Z" fill="#A2E62E"/>
<path d="M15.4417 30.1601C15.266 29.9933 15.1525 29.7728 15.1167 29.5346C12.7792 29.3636 10.6061 28.602 8.7453 27.3983C10.3399 29.862 12.709 31.7777 15.5087 32.7993C16.126 33.0245 16.7402 32.6886 16.831 32.0378C16.8745 31.7259 16.7639 31.4162 16.5396 31.2031L15.4417 30.1601Z" fill="#97D729"/>
<path d="M33.7738 20.0185C33.7738 16.9208 32.7376 14.0656 30.9939 11.7789L31.0206 12.84C31.0351 13.4179 30.7142 13.9519 30.1972 14.2104L29.1156 14.7512C28.8211 14.8985 28.4861 14.944 28.1629 14.8808L26.5229 14.56C25.6024 14.3799 24.7465 15.0847 24.7465 16.0225V16.4371C24.7465 16.9112 24.972 17.357 25.3539 17.6378L27.2462 19.0291C27.5021 19.2173 27.8114 19.3188 28.129 19.3188H29.0584C29.7288 19.3188 30.3167 19.7665 30.495 20.4127L30.7648 21.3905C30.8364 21.6499 30.8364 21.9238 30.7648 22.1832L30.3809 23.5746C30.2621 24.0053 29.9564 24.3599 29.5481 24.5408L28.5786 24.9704C28.1487 25.161 27.8338 25.5432 27.7293 26.0018L26.906 29.6138C26.8323 29.9375 26.9134 30.2771 27.1254 30.5325C27.4941 30.9766 28.1512 31.0501 28.6037 30.6922C31.753 28.2009 33.7738 24.3457 33.7738 20.0185Z" fill="#A2E62E"/>
<path d="M30.9939 11.7788L31.0206 12.8399C31.0351 13.4178 30.7142 13.9518 30.1973 14.2103L29.6444 14.4867C29.6972 14.9739 29.7252 15.4685 29.7252 15.9697C29.7252 17.1327 29.5789 18.2615 29.3043 19.339C29.8689 19.4331 30.339 19.8467 30.4951 20.4126L30.7648 21.3904C30.8364 21.6498 30.8364 21.9237 30.7648 22.183L30.381 23.5745C30.2622 24.0051 29.9565 24.3597 29.5481 24.5407L28.5786 24.9703C28.1487 25.1609 27.8338 25.5431 27.7294 26.0016L26.9061 29.6137C26.8323 29.9374 26.9134 30.277 27.1255 30.5324C27.494 30.9764 28.1512 31.05 28.6038 30.6921C31.753 28.2008 33.7738 24.3456 33.7738 20.0183C33.7738 16.9208 32.7376 14.0655 30.9939 11.7788Z" fill="#97D729"/>
<path d="M10.5971 4.97647C10.4388 4.97647 10.281 4.91236 10.1658 4.78617C9.94862 4.54803 9.96566 4.17902 10.2037 3.9618C10.3219 3.85405 10.4444 3.74598 10.5678 3.64056C10.8127 3.4312 11.1811 3.4603 11.3904 3.70529C11.5996 3.95029 11.5707 4.31859 11.3257 4.52795C11.2119 4.6252 11.099 4.72479 10.9901 4.82414C10.8783 4.92614 10.7375 4.97647 10.5971 4.97647Z" fill="#0573CE"/>
<path d="M31.3961 6.75927C31.2223 6.75927 31.0504 6.68193 30.9353 6.53411C30.7605 6.3095 30.576 6.08731 30.3869 5.87359C30.1734 5.63218 30.1961 5.2634 30.4374 5.04992C30.6789 4.83636 31.0477 4.85907 31.261 5.10033C31.4662 5.33225 31.6664 5.57351 31.8562 5.81726C32.0541 6.07159 32.0084 6.43819 31.7541 6.63611C31.6477 6.71912 31.5215 6.75927 31.3961 6.75927ZM29.1006 4.42222C28.9719 4.42222 28.8423 4.37982 28.7342 4.29253C28.5126 4.11351 28.2824 3.93908 28.0499 3.77407C27.7871 3.58758 27.7251 3.22332 27.9116 2.96051C28.098 2.69778 28.4624 2.63577 28.7252 2.82226C28.9775 3.00128 29.2274 3.19064 29.4679 3.38491C29.7185 3.5875 29.7574 3.95488 29.5548 4.20547C29.4396 4.34808 29.2709 4.42222 29.1006 4.42222ZM12.8841 3.27638C12.6856 3.27638 12.4921 3.17508 12.3828 2.99233C12.2174 2.71575 12.3074 2.35748 12.584 2.19208C12.8499 2.03305 13.1239 1.88064 13.3985 1.73905C13.6847 1.59138 14.0369 1.70388 14.1845 1.99026C14.3322 2.27672 14.2197 2.62862 13.9333 2.77628C13.6805 2.90667 13.4282 3.04703 13.1832 3.19352C13.0893 3.24962 12.986 3.27638 12.8841 3.27638ZM26.3334 2.67001C26.2484 2.67001 26.1622 2.65133 26.0805 2.61197C25.824 2.48834 25.5601 2.37133 25.296 2.2642C24.9975 2.14299 24.8536 1.80269 24.9748 1.50409C25.0959 1.20549 25.4362 1.06164 25.7349 1.18285C26.0218 1.29924 26.3085 1.42637 26.5871 1.56065C26.8774 1.70054 26.9994 2.04931 26.8595 2.33959C26.7589 2.54825 26.5505 2.67001 26.3334 2.67001ZM15.8696 1.93121C15.622 1.93121 15.3923 1.77242 15.3136 1.52393C15.2162 1.21669 15.3863 0.888766 15.6935 0.79136C15.9886 0.697767 16.2904 0.612575 16.5904 0.537965C16.9033 0.460164 17.2198 0.650853 17.2974 0.963533C17.3751 1.27629 17.1846 1.59278 16.8718 1.6705C16.5956 1.73912 16.3179 1.81762 16.0461 1.90375C15.9875 1.92234 15.928 1.93121 15.8696 1.93121ZM23.2384 1.60017C23.1969 1.60017 23.1548 1.59574 23.1126 1.58648C22.8345 1.52533 22.5507 1.47235 22.269 1.42886C21.9505 1.37976 21.7322 1.08171 21.7813 0.763197C21.8304 0.444682 22.1285 0.226141 22.4469 0.275544C22.7529 0.322691 23.0612 0.380341 23.3631 0.446705C23.6779 0.515869 23.8769 0.827149 23.8077 1.14193C23.7478 1.41431 23.5064 1.60017 23.2384 1.60017ZM19.0848 1.30951C18.7824 1.30951 18.5267 1.07634 18.5035 0.769965C18.4793 0.44865 18.7201 0.168413 19.0414 0.144139C19.3489 0.120877 19.662 0.107029 19.9715 0.102905H19.9795C20.2982 0.102905 20.5585 0.359024 20.5628 0.678628C20.5671 1.00088 20.3093 1.26555 19.9871 1.26983C19.7015 1.27357 19.4129 1.2864 19.1294 1.3078C19.1144 1.30889 19.0996 1.30951 19.0848 1.30951Z" fill="#0573CE"/>
<path d="M32.9149 9.17573C32.7001 9.17573 32.4936 9.05678 32.3917 8.85146C32.3254 8.71796 32.2564 8.58422 32.1862 8.4539C32.0335 8.17009 32.1398 7.81625 32.4237 7.66361C32.7075 7.51096 33.0613 7.61724 33.214 7.90106C33.2902 8.04257 33.3652 8.1879 33.4371 8.33277C33.5803 8.62149 33.4623 8.97159 33.1736 9.11482C33.0904 9.15613 33.0019 9.17573 32.9149 9.17573Z" fill="#0573CE"/>
<path d="M36.1908 15.0844C35.9983 15.0844 35.8099 14.9892 35.6986 14.8151C35.6199 14.692 35.5372 14.5684 35.4528 14.4479C35.268 14.1839 35.3321 13.8201 35.5961 13.6352C35.86 13.4504 36.224 13.5145 36.4088 13.7784C36.5025 13.9124 36.5945 14.0497 36.6819 14.1866C36.8554 14.4581 36.7761 14.8189 36.5045 14.9924C36.4072 15.0547 36.2983 15.0844 36.1908 15.0844Z" fill="#0573CE"/>
<path d="M29.819 31.6688C29.5629 31.6688 29.328 31.499 29.2567 31.2402C29.1711 30.9294 29.3536 30.6082 29.6642 30.5227C29.9484 30.4444 30.2328 30.3528 30.5094 30.2504C30.8118 30.1385 31.1473 30.2929 31.2592 30.595C31.371 30.8973 31.2167 31.2329 30.9145 31.3448C30.6067 31.4587 30.2904 31.5606 29.9742 31.6478C29.9224 31.662 29.8703 31.6688 29.819 31.6688ZM32.9393 30.2547C32.7496 30.2547 32.5634 30.1622 32.4513 29.9917C32.2743 29.7224 32.349 29.3607 32.6182 29.1836C32.8646 29.0215 33.1072 28.8468 33.3393 28.6644C33.5925 28.4652 33.9594 28.5089 34.1587 28.7622C34.3579 29.0155 34.3141 29.3824 34.0607 29.5816C33.8029 29.7844 33.5333 29.9786 33.2595 30.1587C33.1607 30.2235 33.0493 30.2547 32.9393 30.2547ZM35.4761 27.9522C35.3475 27.9522 35.2179 27.9099 35.11 27.8228C34.8592 27.6203 34.82 27.2531 35.0224 27.0022C35.2081 26.7722 35.3858 26.5318 35.5508 26.2877C35.7313 26.0207 36.0939 25.9506 36.3609 26.131C36.628 26.3114 36.6981 26.6741 36.5177 26.9412C36.3344 27.2125 36.1368 27.4796 35.9305 27.7352C35.8152 27.878 35.6464 27.9522 35.4761 27.9522ZM37.1892 24.9844C37.1195 24.9844 37.0487 24.9719 36.98 24.9454C36.6792 24.8297 36.529 24.4922 36.6447 24.1914C36.7505 23.9161 36.8458 23.6328 36.9277 23.3496C37.0172 23.0399 37.3413 22.8617 37.6503 22.9511C37.9599 23.0406 38.1383 23.3641 38.0488 23.6737C37.9576 23.9889 37.8517 24.304 37.7339 24.6103C37.6448 24.842 37.4237 24.9844 37.1892 24.9844ZM37.9053 21.6338C37.8946 21.6338 37.8839 21.6335 37.8731 21.6329C37.5513 21.6154 37.3046 21.3404 37.3221 21.0186C37.3326 20.8263 37.3379 20.6313 37.3379 20.439C37.3379 20.3354 37.3364 20.2321 37.3334 20.1293C37.3242 19.8071 37.5779 19.5385 37.9 19.5293C38.2252 19.5212 38.4908 19.7737 38.4999 20.0958C38.5032 20.2098 38.5048 20.3243 38.5048 20.4391C38.5048 20.6524 38.4989 20.8688 38.4873 21.0821C38.4705 21.3929 38.213 21.6338 37.9053 21.6338ZM37.5633 18.2242C37.3042 18.2242 37.0677 18.0504 36.9991 17.7881C36.9245 17.5025 36.8367 17.2169 36.7382 16.9391C36.6302 16.6355 36.789 16.3019 37.0928 16.194C37.3965 16.0863 37.7301 16.2449 37.8379 16.5487C37.9476 16.8577 38.0453 17.1754 38.1283 17.4931C38.2098 17.8049 38.023 18.1237 37.7112 18.2051C37.6617 18.218 37.6121 18.2242 37.5633 18.2242Z" fill="#0573CE"/>
<path d="M26.8795 32.0645C26.5571 32.0645 26.296 31.8032 26.296 31.481C26.296 31.1587 26.5571 30.8975 26.8795 30.8975C27.027 30.8975 27.176 30.8943 27.322 30.8883C27.6459 30.8757 27.9158 31.125 27.9293 31.447C27.9428 31.7689 27.6926 32.0408 27.3706 32.0543C27.2085 32.061 27.0432 32.0645 26.8795 32.0645Z" fill="#0573CE"/>
<path d="M12.5445 27.9062C12.3816 27.9062 12.2161 27.9026 12.0525 27.8956C11.7305 27.8816 11.4808 27.6094 11.4947 27.2874C11.5086 26.9655 11.7815 26.7163 12.1028 26.7296C12.2497 26.736 12.3983 26.7392 12.5445 26.7392C12.8669 26.7392 13.128 27.0005 13.128 27.3227C13.128 27.645 12.8668 27.9062 12.5445 27.9062Z" fill="#0573CE"/>
<path d="M9.70233 27.5221C9.65083 27.5221 9.59847 27.5153 9.54642 27.5009C9.24113 27.4165 8.93592 27.3178 8.63934 27.2075C8.33725 27.0953 8.18343 26.7594 8.29562 26.4573C8.40789 26.1552 8.74375 26.0012 9.04585 26.1136C9.31131 26.2122 9.58446 26.3005 9.8577 26.3761C10.1683 26.462 10.3504 26.7835 10.2645 27.0942C10.1929 27.3526 9.95822 27.5221 9.70233 27.5221ZM6.69784 26.1562C6.58752 26.1562 6.47603 26.125 6.37707 26.0597C6.11293 25.8855 5.85308 25.6978 5.60466 25.5019C5.35166 25.3023 5.30824 24.9354 5.50788 24.6824C5.70728 24.4294 6.07427 24.3859 6.32735 24.5856C6.54994 24.7612 6.78287 24.9294 7.01962 25.0856C7.28857 25.2631 7.3628 25.625 7.18541 25.894C7.0733 26.0639 6.88744 26.1562 6.69784 26.1562ZM4.25802 23.9355C4.0874 23.9355 3.91834 23.8611 3.80304 23.7178C3.60481 23.4715 3.41466 23.2136 3.23774 22.9512C3.05764 22.684 3.1282 22.3213 3.39537 22.1412C3.66253 21.9612 4.02532 22.0317 4.20535 22.2989C4.3639 22.5341 4.53444 22.7654 4.71214 22.9862C4.91426 23.2372 4.87443 23.6045 4.62337 23.8066C4.51562 23.8933 4.38631 23.9355 4.25802 23.9355ZM2.6127 21.0761C2.37782 21.0761 2.15655 20.9334 2.06763 20.7011C1.95443 20.4054 1.85259 20.1013 1.76514 19.7972C1.67606 19.4875 1.85492 19.1642 2.16464 19.0751C2.47421 18.986 2.79763 19.1648 2.88671 19.4746C2.96498 19.7468 3.05608 20.019 3.15738 20.2838C3.2726 20.5847 3.12206 20.9221 2.82112 21.0373C2.75258 21.0636 2.68202 21.0761 2.6127 21.0761ZM1.92743 17.8487C1.6195 17.8487 1.3619 17.6075 1.34533 17.2963C1.33451 17.095 1.32915 16.891 1.32922 16.6898C1.32922 16.5749 1.33094 16.4584 1.33451 16.344C1.34432 16.0219 1.61218 15.7686 1.93568 15.7787C2.25777 15.7885 2.51086 16.0576 2.50098 16.3798C2.49786 16.4828 2.49623 16.5863 2.49623 16.6901C2.49615 16.8706 2.50105 17.0535 2.5107 17.234C2.52797 17.5558 2.28103 17.8306 1.95917 17.8478C1.94844 17.8485 1.93793 17.8487 1.92743 17.8487ZM2.26112 14.5655C2.21202 14.5655 2.16223 14.5593 2.1126 14.5462C1.80085 14.4644 1.6146 14.1454 1.69636 13.8336C1.77665 13.5277 1.87134 13.2212 1.97777 12.9227C2.08599 12.6192 2.41967 12.4607 2.72333 12.569C3.02683 12.6772 3.18523 13.011 3.07701 13.3146C2.9817 13.5819 2.89698 13.8562 2.82509 14.13C2.75632 14.392 2.51988 14.5655 2.26112 14.5655ZM3.58683 11.5438C3.479 11.5438 3.37001 11.5139 3.27244 11.4515C3.00115 11.2776 2.92219 10.9166 3.09607 10.6454C3.26684 10.379 3.45115 10.1167 3.64394 9.86567C3.84015 9.61017 4.20644 9.56202 4.46217 9.75831C4.71774 9.9546 4.76574 10.3209 4.56953 10.5765C4.39681 10.8015 4.23164 11.0365 4.07861 11.2752C3.9672 11.4489 3.779 11.5438 3.58683 11.5438Z" fill="#0573CE"/>
<path d="M5.78039 9.07097C5.61234 9.07097 5.44553 8.99877 5.33016 8.85896C5.12492 8.61047 5.16001 8.24271 5.40858 8.03747C5.53485 7.93322 5.66485 7.8306 5.79501 7.73241C6.05245 7.53838 6.41827 7.58965 6.61223 7.84686C6.80634 8.10414 6.75507 8.47004 6.49778 8.66407C6.38124 8.75199 6.26477 8.84395 6.15165 8.93731C6.04288 9.02717 5.91125 9.07097 5.78039 9.07097Z" fill="#0573CE"/>
<path d="M26.8794 32.531C26.5571 32.531 26.2959 32.2698 26.2959 31.9475V31.4807C26.2959 31.1585 26.5571 30.8972 26.8794 30.8972C27.2017 30.8972 27.4629 31.1585 27.4629 31.4807V31.9475C27.4629 32.2698 27.2016 32.531 26.8794 32.531Z" fill="#0573CE"/>
<path d="M20.6657 39.8724C20.3777 39.8724 20.127 39.6591 20.088 39.3658C20.0456 39.0463 20.2701 38.753 20.5895 38.7105C20.8797 38.6719 21.1695 38.6133 21.4509 38.5364C21.762 38.4516 22.0827 38.6347 22.1676 38.9456C22.2525 39.2565 22.0693 39.5773 21.7585 39.6622C21.4267 39.7528 21.0851 39.8219 20.7433 39.8673C20.7174 39.8707 20.6914 39.8724 20.6657 39.8724ZM18.1282 39.7598C18.0857 39.7598 18.0425 39.7552 17.9993 39.7454C17.6631 39.6695 17.3288 39.5701 17.0058 39.4497C16.7038 39.3372 16.5502 39.0012 16.6627 38.6993C16.7752 38.3973 17.1116 38.2437 17.4132 38.3562C17.6872 38.4583 17.9708 38.5427 18.2561 38.6071C18.5705 38.678 18.7678 38.9903 18.6969 39.3046C18.6358 39.5757 18.395 39.7598 18.1282 39.7598ZM23.8975 38.5872C23.7163 38.5872 23.5376 38.5031 23.4236 38.3447C23.2352 38.0832 23.2946 37.7186 23.556 37.5302C23.7931 37.3595 24.0212 37.1708 24.2341 36.9696C24.4684 36.7483 24.8377 36.7586 25.059 36.9928C25.2804 37.227 25.27 37.5963 25.0358 37.8176C24.7855 38.0543 24.5171 38.2762 24.2381 38.4771C24.1349 38.5514 24.0156 38.5872 23.8975 38.5872ZM15.0235 38.1897C14.8883 38.1897 14.7523 38.1428 14.6419 38.0474C14.3822 37.8225 14.1346 37.5778 13.9063 37.3199C13.6926 37.0787 13.7149 36.7099 13.9562 36.4963C14.1974 36.2826 14.5662 36.305 14.7799 36.5461C14.9742 36.7655 15.1847 36.9737 15.4057 37.165C15.6494 37.3759 15.676 37.7444 15.4651 37.988C15.3495 38.1214 15.187 38.1897 15.0235 38.1897ZM26.1442 35.9326C26.0576 35.9326 25.9696 35.9132 25.8866 35.8724C25.5975 35.7299 25.4787 35.3801 25.6212 35.091C25.7505 34.8287 25.8632 34.5552 25.9561 34.278C26.0585 33.9725 26.389 33.8078 26.6948 33.9103C27.0004 34.0127 27.1651 34.3434 27.0627 34.649C26.9532 34.9756 26.8204 35.2979 26.6681 35.607C26.5665 35.8131 26.3594 35.9326 26.1442 35.9326ZM13.0224 35.3464C12.7881 35.3464 12.5672 35.2044 12.4778 34.9728C12.3538 34.6515 12.2506 34.3186 12.1709 33.9834C12.0964 33.6699 12.2901 33.3553 12.6036 33.2808C12.9176 33.2063 13.2317 33.4001 13.3063 33.7135C13.3738 33.9977 13.4614 34.2801 13.5666 34.5527C13.6826 34.8533 13.5329 35.1911 13.2322 35.3071C13.1633 35.3338 13.0922 35.3464 13.0224 35.3464ZM12.5444 31.8924C12.2221 31.8924 11.9609 31.6311 11.9609 31.3089V30.3506C11.9609 30.0283 12.2221 29.7671 12.5444 29.7671C12.8668 29.7671 13.1279 30.0283 13.1279 30.3506V31.3089C13.1279 31.6311 12.8667 31.8924 12.5444 31.8924Z" fill="#0573CE"/>
<path d="M12.5444 28.3727C12.2221 28.3727 11.9609 28.1114 11.9609 27.7892V27.3224C11.9609 27.0001 12.2221 26.7389 12.5444 26.7389C12.8668 26.7389 13.1279 27.0001 13.1279 27.3224V27.7892C13.1279 28.1114 12.8667 28.3727 12.5444 28.3727Z" fill="#0573CE"/>
<path d="M13.1998 7.80476C13.1998 9.75794 11.6164 12.9132 9.66322 12.9132C7.71004 12.9132 6.12665 9.75801 6.12665 7.80476C6.12665 5.8515 7.71004 4.26819 9.66322 4.26819C11.6164 4.26819 13.1998 5.85158 13.1998 7.80476Z" fill="#FE646F"/>
<path d="M11.1665 4.60339C11.3811 5.05969 11.5017 5.56897 11.5017 6.10665C11.5017 8.05983 9.91826 11.2151 7.96508 11.2151C7.67286 11.2151 7.38905 11.144 7.11737 11.0173C7.76062 12.0864 8.66334 12.9132 9.66315 12.9132C11.6163 12.9132 13.1997 9.75798 13.1997 7.80472C13.1998 6.38922 12.3678 5.16846 11.1665 4.60339Z" fill="#FD4755"/>
<path d="M9.66314 8.98364C10.3142 8.98364 10.842 8.45586 10.842 7.80481C10.842 7.15376 10.3142 6.62598 9.66314 6.62598C9.01209 6.62598 8.48431 7.15376 8.48431 7.80481C8.48431 8.45586 9.01209 8.98364 9.66314 8.98364Z" fill="#E8EDF2"/>
<path d="M36.3333 12.1273C36.3333 14.0804 34.7499 17.2357 32.7968 17.2357C30.8436 17.2357 29.2602 14.0805 29.2602 12.1273C29.2602 10.174 30.8436 8.5907 32.7968 8.5907C34.7499 8.5907 36.3333 10.1741 36.3333 12.1273Z" fill="#FE646F"/>
<path d="M34.3 8.9259C34.5147 9.3822 34.6352 9.89148 34.6352 10.4292C34.6352 12.3823 33.0518 15.5376 31.0986 15.5376C30.8064 15.5376 30.5226 15.4665 30.2509 15.3398C30.8942 16.4089 31.7969 17.2357 32.7967 17.2357C34.7499 17.2357 36.3333 14.0805 36.3333 12.1272C36.3333 10.7117 35.5014 9.49097 34.3 8.9259Z" fill="#FD4755"/>
<path d="M32.7968 13.3061C33.4478 13.3061 33.9756 12.7784 33.9756 12.1273C33.9756 11.4763 33.4478 10.9485 32.7968 10.9485C32.1457 10.9485 31.6179 11.4763 31.6179 12.1273C31.6179 12.7784 32.1457 13.3061 32.7968 13.3061Z" fill="#E8EDF2"/>
<path d="M16.081 22.2139C16.081 24.1671 14.4976 27.3224 12.5444 27.3224C10.5913 27.3224 9.00787 24.1672 9.00787 22.2139C9.00787 20.2607 10.5913 18.6774 12.5444 18.6774C14.4976 18.6774 16.081 20.2608 16.081 22.2139Z" fill="#FE646F"/>
<path d="M14.0477 19.0126C14.2624 19.4689 14.3829 19.9782 14.3829 20.5158C14.3829 22.469 12.7995 25.6243 10.8463 25.6243C10.5541 25.6243 10.2703 25.5532 9.9986 25.4265C10.6418 26.4956 11.5446 27.3224 12.5444 27.3224C14.4976 27.3224 16.0809 24.1672 16.0809 22.2139C16.081 20.7984 15.249 19.5776 14.0477 19.0126Z" fill="#FD4755"/>
<path d="M12.5444 23.3928C13.1954 23.3928 13.7232 22.865 13.7232 22.214C13.7232 21.5629 13.1954 21.0352 12.5444 21.0352C11.8933 21.0352 11.3655 21.5629 11.3655 22.214C11.3655 22.865 11.8933 23.3928 12.5444 23.3928Z" fill="#E8EDF2"/>
<path d="M30.416 26.3723C30.416 28.3254 28.8326 31.4807 26.8794 31.4807C24.9262 31.4807 23.3428 28.3255 23.3428 26.3723C23.3428 24.4191 24.9262 22.8357 26.8794 22.8357C28.8326 22.8357 30.416 24.419 30.416 26.3723Z" fill="#FE646F"/>
<path d="M28.3827 23.1709C28.5973 23.6272 28.7178 24.1365 28.7178 24.6742C28.7178 26.6273 27.1344 29.7826 25.1813 29.7826C24.8891 29.7826 24.6052 29.7115 24.3336 29.5848C24.9768 30.6539 25.8795 31.4807 26.8793 31.4807C28.8325 31.4807 30.4159 28.3255 30.4159 26.3722C30.416 24.9567 29.5841 23.736 28.3827 23.1709Z" fill="#FD4755"/>
<path d="M26.8794 27.5511C27.5304 27.5511 28.0582 27.0234 28.0582 26.3723C28.0582 25.7213 27.5304 25.1935 26.8794 25.1935C26.2283 25.1935 25.7006 25.7213 25.7006 26.3723C25.7006 27.0234 26.2283 27.5511 26.8794 27.5511Z" fill="#E8EDF2"/>
</g>
<defs>
<clipPath id="clip0_84_59">
<rect width="39.7696" height="39.7696" fill="white" transform="translate(0.0322876 0.102783)"/>
</clipPath>
</defs>
</svg>
