<svg width="22" height="22" viewBox="0 0 22 22" fill="none" xmlns="http://www.w3.org/2000/svg">
<g clip-path="url(#clip0_1_781)">
<path fill-rule="evenodd" clip-rule="evenodd" d="M7.24395 0H14.6946L21.2715 6.57813V19.2101C21.2715 20.744 20.0168 22 18.4816 22H7.24399C5.7101 22 4.45532 20.744 4.45532 19.2101V2.78992C4.45532 1.25602 5.7101 0 7.24395 0Z" fill="#E5252A"/>
<path fill-rule="evenodd" clip-rule="evenodd" d="M14.6946 0L21.2715 6.57813H15.4037C15.0127 6.57813 14.6946 6.25879 14.6946 5.86777V0Z" fill="#B71D21"/>
<path fill-rule="evenodd" clip-rule="evenodd" d="M1.34094 9.36804H16.4925C16.8295 9.36804 17.1048 9.64339 17.1048 9.98035V15.5388C17.1048 15.8757 16.8295 16.1511 16.4925 16.1511H1.34094C1.00398 16.1511 0.728638 15.8757 0.728638 15.5388V9.98035C0.728638 9.64339 1.00402 9.36804 1.34094 9.36804Z" fill="#B71D21"/>
<path d="M5.06007 10.5015H3.91719C3.72104 10.5015 3.56201 10.6606 3.56201 10.8567V12.7301V13.1915V14.6612C3.56201 14.8574 3.72104 15.0164 3.91719 15.0164C4.11334 15.0164 4.27237 14.8574 4.27237 14.6612V13.5466H5.06003C5.88606 13.5466 6.55809 12.8746 6.55809 12.0486V11.9996C6.55814 11.1736 5.88611 10.5015 5.06007 10.5015ZM5.84778 12.0486C5.84778 12.4829 5.4944 12.8362 5.06007 12.8362H4.27237V12.73V11.2118H5.06003C5.49436 11.2118 5.84773 11.5652 5.84773 11.9995V12.0486H5.84778ZM8.88223 10.5015H7.73939C7.54324 10.5015 7.38421 10.6606 7.38421 10.8567V14.6612C7.38421 14.8574 7.54324 15.0164 7.73939 15.0164H8.88223C9.70826 15.0164 10.3803 14.3444 10.3803 13.5184V11.9996C10.3803 11.1736 9.70826 10.5015 8.88223 10.5015ZM9.66993 13.5184C9.66993 13.9527 9.31656 14.306 8.88223 14.306H8.09457V11.2118H8.88223C9.31656 11.2118 9.66993 11.5652 9.66993 11.9995V13.5184ZM11.9858 11.2119V12.1951H13.6323C13.8284 12.1951 13.9874 12.3541 13.9874 12.5503C13.9874 12.7464 13.8284 12.9055 13.6323 12.9055H11.9858V14.6612C11.9858 14.8574 11.8268 15.0164 11.6306 15.0164C11.4345 15.0164 11.2755 14.8574 11.2755 14.6612V10.8567C11.2755 10.6606 11.4345 10.5015 11.6306 10.5015H13.9164C14.1125 10.5015 14.2715 10.6606 14.2715 10.8567C14.2715 11.0529 14.1125 11.2119 13.9164 11.2119H11.9858Z" fill="white"/>
</g>
<defs>
<clipPath id="clip0_1_781">
<rect width="22" height="22" fill="white"/>
</clipPath>
</defs>
</svg>
