<svg width="40" height="41" viewBox="0 0 40 41" fill="none" xmlns="http://www.w3.org/2000/svg">
<g clip-path="url(#clip0_84_200)">
<path d="M41.0455 21.5701C41.0455 23.2669 38.9609 24.6655 38.5433 26.2298C38.1125 27.8471 39.2028 30.1007 38.3842 31.5158C37.5524 32.9541 35.0502 33.1265 33.8836 34.293C32.717 35.4596 32.5447 37.9618 31.1064 38.7936C29.6912 39.6122 27.4376 38.5219 25.8203 38.9527C24.2561 39.3703 22.8575 41.4549 21.1607 41.4549C19.4638 41.4549 18.0653 39.3703 16.501 38.9527C14.8837 38.5219 12.6301 39.6122 11.215 38.7936C9.77663 37.9618 9.60429 35.4596 8.43772 34.293C7.27114 33.1265 4.76897 32.9541 3.93713 31.5158C3.11854 30.1007 4.20889 27.8471 3.77805 26.2298C3.36047 24.6655 1.27588 23.2669 1.27588 21.5701C1.27588 19.8733 3.36047 18.4747 3.77805 16.9104C4.20889 15.2931 3.11854 13.0395 3.93713 11.6244C4.76897 10.1861 7.27114 10.0137 8.43772 8.84714C9.60429 7.68057 9.77663 5.1784 11.215 4.34655C12.6301 3.52796 14.8837 4.61831 16.501 4.18747C18.0653 3.76989 19.4638 1.6853 21.1607 1.6853C22.8575 1.6853 24.2561 3.76989 25.8203 4.18747C27.4376 4.61831 29.6912 3.52796 31.1064 4.34655C32.5447 5.1784 32.717 7.68057 33.8836 8.84714C35.0502 10.0137 37.5524 10.1861 38.3842 11.6244C39.2028 13.0395 38.1125 15.2931 38.5433 16.9104C38.9609 18.4747 41.0455 19.8733 41.0455 21.5701Z" fill="#62B200"/>
<path d="M25.7689 17.0558L18.6725 24.1522L14.9938 20.4766C14.1953 19.6781 12.8997 19.6781 12.1012 20.4766C11.3027 21.2751 11.3027 22.5707 12.1012 23.3692L17.2619 28.5299C18.0387 29.3067 19.3001 29.3067 20.0769 28.5299L28.6584 19.9484C29.4569 19.1499 29.4569 17.8543 28.6584 17.0558C27.8599 16.2573 26.5674 16.2573 25.7689 17.0558Z" fill="#FFFCEE"/>
</g>
<defs>
<clipPath id="clip0_84_200">
<rect width="39.7696" height="39.7696" fill="white" transform="translate(0.139603 0.549072)"/>
</clipPath>
</defs>
</svg>
