<svg width="24" height="24" viewBox="0 0 24 24" fill="none" xmlns="http://www.w3.org/2000/svg">
<path d="M12.0017 21.5C10.6877 21.5 9.45271 21.2506 8.29658 20.752C7.14043 20.2533 6.13475 19.5765 5.27953 18.7217C4.4243 17.8669 3.74724 16.8616 3.24836 15.706C2.74947 14.5504 2.50003 13.3156 2.50003 12.0017C2.50003 10.6877 2.74941 9.45268 3.24816 8.29655C3.74691 7.1404 4.42378 6.13472 5.27878 5.2795C6.13378 4.42427 7.1392 3.74721 8.29503 3.24833C9.45085 2.74944 10.6858 2.5 12 2.5C13.0534 2.5 14.0501 2.65833 14.9901 2.975C15.93 3.29167 16.7923 3.73333 17.5769 4.3L16.4923 5.4096C15.8462 4.96473 15.1463 4.61858 14.3926 4.37113C13.6389 4.12369 12.8413 3.99998 12 3.99998C9.78334 3.99998 7.89584 4.77914 6.33751 6.33748C4.77917 7.89581 4.00001 9.78331 4.00001 12C4.00001 14.2166 4.77917 16.1041 6.33751 17.6625C7.89584 19.2208 9.78334 20 12 20C14.2167 20 16.1042 19.2208 17.6625 17.6625C19.2208 16.1041 20 14.2166 20 12C20 11.6487 19.9769 11.3013 19.9308 10.9577C19.8846 10.6142 19.8154 10.2802 19.7231 9.95573L20.9346 8.7346C21.1179 9.2487 21.258 9.77756 21.3548 10.3212C21.4516 10.8648 21.5 11.4244 21.5 12C21.5 13.3141 21.2506 14.5491 20.752 15.705C20.2533 16.8608 19.5766 17.8662 18.7217 18.7212C17.8669 19.5762 16.8616 20.2531 15.706 20.7518C14.5504 21.2506 13.3156 21.5 12.0017 21.5ZM10.5808 16.2538L6.67696 12.35L7.73078 11.2962L10.5808 14.1462L20.4462 4.2654L21.5 5.31923L10.5808 16.2538Z" fill="#98A4AE"/>
</svg>
