<svg width="24" height="24" viewBox="0 0 24 24" fill="none" xmlns="http://www.w3.org/2000/svg">
<path d="M5.11541 20.5C4.67117 20.5 4.29089 20.3418 3.97456 20.0255C3.65821 19.7091 3.50003 19.3288 3.50003 18.8846C3.50003 18.4404 3.65821 18.0601 3.97456 17.7438C4.29089 17.4274 4.67117 17.2693 5.11541 17.2693C5.55962 17.2693 5.93991 17.4274 6.25626 17.7438C6.57259 18.0601 6.73076 18.4404 6.73076 18.8846C6.73076 19.3288 6.57259 19.7091 6.25626 20.0255C5.93991 20.3418 5.55962 20.5 5.11541 20.5ZM17.2693 20.5C17.2693 18.582 16.9086 16.7912 16.1874 15.1274C15.4661 13.4637 14.4826 12.0089 13.2369 10.7631C11.9911 9.51734 10.5363 8.53384 8.87251 7.81261C7.20872 7.09137 5.4179 6.73076 3.50003 6.73076V4.50003C5.72566 4.50003 7.80418 4.91766 9.73558 5.75293C11.667 6.58818 13.3596 7.73272 14.8135 9.18656C16.2673 10.6404 17.4118 12.3324 18.2471 14.2625C19.0823 16.1926 19.5 18.2717 19.5 20.5H17.2693ZM11.5 20.5C11.5 19.3833 11.2917 18.3458 10.875 17.3875C10.4584 16.4291 9.88336 15.5833 9.15003 14.85C8.4167 14.1166 7.57086 13.5416 6.61253 13.125C5.6542 12.7083 4.6167 12.5 3.50003 12.5V10.2693C4.9244 10.2693 6.2537 10.5362 7.48793 11.07C8.72216 11.6039 9.80503 12.335 10.7365 13.2635C11.665 14.1942 12.3961 15.2762 12.93 16.5094C13.4638 17.7427 13.7308 19.0728 13.7308 20.5H11.5Z" fill="#98A4AE"/>
</svg>
