<svg width="34" height="34" viewBox="0 0 34 34" fill="none" xmlns="http://www.w3.org/2000/svg">
<g clip-path="url(#clip0_84_43)">
<path d="M32.6953 5.72941L29.0048 2.20294C28.7588 1.95691 28.3897 1.79285 28.0207 1.79285H1.69492C0.915787 1.79285 0.30072 2.40798 0.30072 3.14606V31.8501C0.30072 32.5882 0.915787 33.1623 1.69492 33.1623H31.7111C32.4903 33.1623 33.1053 32.5472 33.1053 31.8501V6.67254C33.1053 6.3035 32.9413 5.97544 32.6953 5.72941Z" fill="#2F4859"/>
<path d="M32.6953 4.29423L29.0048 0.767756C28.7588 0.521661 28.3897 0.357666 28.0207 0.357666H1.69492C0.915787 0.357666 0.30072 0.972733 0.30072 1.66983V30.3739C0.30072 31.112 0.915787 31.7271 1.69492 31.7271H31.7111C32.4903 31.7271 33.1053 31.112 33.1053 30.4149V5.23736C33.1053 4.86832 32.9413 4.54026 32.6953 4.29423Z" fill="#3A556A"/>
<path d="M26.2985 18.2362H7.10774C6.77968 18.2362 6.49268 18.5232 6.49268 18.8513V21.5167H26.9546V18.8513C26.9545 18.5232 26.6675 18.2362 26.2985 18.2362Z" fill="#E56353"/>
<path d="M26.9135 21.5166H6.4516V31.7271H26.9135V21.5166Z" fill="#EBF0F3"/>
<path d="M25.6833 23.6079H7.76373V24.264H25.6833V23.6079Z" fill="#E1E6E9"/>
<path d="M25.6833 26.2733H7.76373V26.9294H25.6833V26.2733Z" fill="#E1E6E9"/>
<path d="M25.6833 28.9796H7.76373V29.6357H25.6833V28.9796Z" fill="#E1E6E9"/>
<path d="M7.06665 0.357666V9.66598C7.06665 10.117 7.43569 10.5271 7.92774 10.5271H26.0934C26.5444 10.5271 26.9545 10.158 26.9545 9.66598V0.357666H7.06665Z" fill="#64798A"/>
<path d="M14.8168 0.357666V9.66598C14.8168 10.117 15.1858 10.5271 15.6779 10.5271H26.0934C26.5444 10.5271 26.9545 10.158 26.9545 9.66598V0.357666H14.8168ZM24.5352 7.98477C24.5352 8.27178 24.3301 8.47682 24.0431 8.47682H22.1979C21.9108 8.47682 21.7058 8.27178 21.7058 7.98477V2.32595C21.7058 2.03894 21.9108 1.8339 22.1979 1.8339H24.0431C24.3301 1.8339 24.5352 2.03894 24.5352 2.32595V7.98477Z" fill="#EBF0F3"/>
<path d="M3.86827 26.9294H2.187C1.89999 26.9294 1.69495 27.1755 1.69495 27.4215V29.1027C1.69495 29.3897 1.94097 29.5948 2.187 29.5948H3.8682C4.15521 29.5948 4.36026 29.3487 4.36026 29.1027V27.4215C4.36033 27.1755 4.15528 26.9294 3.86827 26.9294Z" fill="#2F4859"/>
</g>
<defs>
<clipPath id="clip0_84_43">
<rect width="32.8046" height="32.8046" fill="white" transform="translate(0.30072 0.357666)"/>
</clipPath>
</defs>
</svg>
