<svg width="24" height="24" viewBox="0 0 24 24" fill="none" xmlns="http://www.w3.org/2000/svg">
    <path
        d="M12.0003 16.6538C12.2129 16.6538 12.391 16.5819 12.5346 16.4381C12.6782 16.2943 12.75 16.1161 12.75 15.9035C12.75 15.6909 12.6781 15.5128 12.5343 15.3692C12.3905 15.2256 12.2123 15.1538 11.9997 15.1538C11.7871 15.1538 11.609 15.2257 11.4654 15.3696C11.3218 15.5134 11.25 15.6916 11.25 15.9042C11.25 16.1167 11.3219 16.2948 11.4657 16.4384C11.6095 16.582 11.7877 16.6538 12.0003 16.6538ZM12.0003 12.75C12.2129 12.75 12.391 12.6781 12.5346 12.5343C12.6782 12.3904 12.75 12.2122 12.75 11.9997C12.75 11.7871 12.6781 11.609 12.5343 11.4654C12.3905 11.3218 12.2123 11.25 11.9997 11.25C11.7871 11.25 11.609 11.3219 11.4654 11.4657C11.3218 11.6095 11.25 11.7877 11.25 12.0003C11.25 12.2129 11.3219 12.391 11.4657 12.5346C11.6095 12.6782 11.7877 12.75 12.0003 12.75ZM12.0003 8.84613C12.2129 8.84613 12.391 8.77422 12.5346 8.6304C12.6782 8.48658 12.75 8.30838 12.75 8.0958C12.75 7.88322 12.6781 7.70513 12.5343 7.56153C12.3905 7.41794 12.2123 7.34615 11.9997 7.34615C11.7871 7.34615 11.609 7.41806 11.4654 7.56188C11.3218 7.70568 11.25 7.88388 11.25 8.09648C11.25 8.30906 11.3219 8.48715 11.4657 8.63075C11.6095 8.77433 11.7877 8.84613 12.0003 8.84613ZM19.6923 19.5H4.30773C3.81061 19.5 3.38506 19.3229 3.03106 18.9689C2.67704 18.6149 2.50003 18.1894 2.50003 17.6923V14.4039C3.06926 14.2949 3.54491 14.0157 3.92696 13.5663C4.30901 13.117 4.50003 12.5949 4.50003 12C4.50003 11.4051 4.30901 10.883 3.92696 10.4336C3.54491 9.98426 3.06926 9.70508 2.50003 9.5961V6.3077C2.50003 5.81058 2.67704 5.38503 3.03106 5.03103C3.38506 4.67701 3.81061 4.5 4.30773 4.5H19.6923C20.1894 4.5 20.615 4.67701 20.969 5.03103C21.323 5.38503 21.5 5.81058 21.5 6.3077V9.5961C20.9307 9.70508 20.4551 9.98426 20.0731 10.4336C19.691 10.883 19.5 11.4051 19.5 12C19.5 12.5949 19.691 13.117 20.0731 13.5663C20.4551 14.0157 20.9307 14.2949 21.5 14.4039V17.6923C21.5 18.1894 21.323 18.6149 20.969 18.9689C20.615 19.3229 20.1894 19.5 19.6923 19.5ZM19.6923 18C19.782 18 19.8558 17.9711 19.9135 17.9134C19.9712 17.8557 20 17.782 20 17.6923V15.45C19.3833 15.0833 18.8958 14.5958 18.5375 13.9875C18.1792 13.3791 18 12.7166 18 12C18 11.2833 18.1792 10.6208 18.5375 10.0125C18.8958 9.40414 19.3833 8.91664 20 8.54998V6.3077C20 6.21795 19.9712 6.14423 19.9135 6.08652C19.8558 6.02882 19.782 5.99998 19.6923 5.99998H4.30773C4.21798 5.99998 4.14426 6.02882 4.08656 6.08652C4.02886 6.14423 4.00001 6.21795 4.00001 6.3077V8.54998C4.61667 8.91664 5.10417 9.40414 5.46251 10.0125C5.82084 10.6208 6.00001 11.2833 6.00001 12C6.00001 12.7166 5.82084 13.3791 5.46251 13.9875C5.10417 14.5958 4.61667 15.0833 4.00001 15.45V17.6923C4.00001 17.782 4.02886 17.8557 4.08656 17.9134C4.14426 17.9711 4.21798 18 4.30773 18H19.6923Z"
        fill="#98A4AE" />
</svg>