<svg width="40" height="40" viewBox="0 0 40 40" fill="none" xmlns="http://www.w3.org/2000/svg">
<g clip-path="url(#clip0_84_166)">
<path d="M33.3824 36.5403L3.33451 33.2101C1.88981 33.05 0.848523 31.7491 1.0086 30.3044L3.77038 5.38538C3.93053 3.94069 5.23147 2.89932 6.67608 3.05947L36.7239 6.3897C38.1686 6.54985 39.21 7.85079 39.0498 9.29541L36.2881 34.2144C36.128 35.6591 34.8271 36.7005 33.3824 36.5403Z" fill="url(#paint0_linear_84_166)"/>
<path d="M39.0498 9.29547L37.9609 19.1231L35.5406 6.25867L36.7244 6.38977C38.1686 6.54961 39.2097 7.85039 39.0498 9.29547Z" fill="url(#paint1_linear_84_166)"/>
<path d="M37.6888 31.9114L7.9781 37.5007C6.54964 37.7694 5.17375 36.8293 4.90502 35.4008L0.269813 10.7614C0.00108314 9.33296 0.941251 7.95708 2.36972 7.68835L32.0804 2.09907C33.5089 1.83034 34.8848 2.7705 35.1535 4.19897L39.7887 28.8383C40.0574 30.2669 39.1173 31.6428 37.6888 31.9114Z" fill="url(#paint2_linear_84_166)"/>
<path d="M35.7877 7.5708V32.2691L37.6887 31.9114C39.1172 31.6427 40.0573 30.2668 39.7886 28.8383L35.7877 7.5708Z" fill="url(#paint3_linear_84_166)"/>
<path d="M4.76367 34.6489L4.9051 35.4007C5.17383 36.8292 6.54972 37.7694 7.97818 37.5006L23.137 34.6489H4.76367Z" fill="url(#paint4_linear_84_166)"/>
<path d="M33.1559 34.8027H2.92411C1.47056 34.8027 0.292267 33.6244 0.292267 32.1709V7.09926C0.292267 5.6457 1.47056 4.46741 2.92411 4.46741H33.1559C34.6094 4.46741 35.7877 5.6457 35.7877 7.09926V32.1709C35.7877 33.6244 34.6094 34.8027 33.1559 34.8027Z" fill="url(#paint5_linear_84_166)"/>
<path d="M30.6914 32.3298H5.38866C4.17215 32.3298 3.18593 31.3435 3.18593 30.127V9.14316C3.18593 7.92665 4.17215 6.94043 5.38866 6.94043H30.6914C31.9079 6.94043 32.8941 7.92665 32.8941 9.14316V30.127C32.8941 31.3435 31.9079 32.3298 30.6914 32.3298Z" fill="url(#paint6_linear_84_166)"/>
<path d="M19.8016 32.3297H5.38906C4.17231 32.3297 3.18562 31.3438 3.18562 30.1271V26.6872L6.84237 22.2425C8.04917 20.7743 10.2955 20.7743 11.5031 22.2425L13.78 25.0105L19.8016 32.3297Z" fill="url(#paint7_linear_84_166)"/>
<path d="M32.8944 24.5959V30.1271C32.8944 31.3439 31.9077 32.3297 30.6909 32.3297H7.75815L13.7799 25.0106L21.1774 16.018C22.3842 14.5507 24.6314 14.5507 25.8382 16.018L32.8944 24.5959Z" fill="url(#paint8_linear_84_166)"/>
<path d="M10.8819 15.3835C12.6071 15.3835 14.0057 13.985 14.0057 12.2598C14.0057 10.5346 12.6071 9.13611 10.8819 9.13611C9.15676 9.13611 7.75822 10.5346 7.75822 12.2598C7.75822 13.985 9.15676 15.3835 10.8819 15.3835Z" fill="url(#paint9_linear_84_166)"/>
</g>
<defs>
<linearGradient id="paint0_linear_84_166" x1="10.3451" y1="7.69708" x2="32.6843" y2="35.5958" gradientUnits="userSpaceOnUse">
<stop stop-color="#FFA936"/>
<stop offset="0.4112" stop-color="#FF8548"/>
<stop offset="0.7781" stop-color="#FF6C54"/>
<stop offset="1" stop-color="#FF6359"/>
</linearGradient>
<linearGradient id="paint1_linear_84_166" x1="38.319" y1="12.3449" x2="36.4505" y2="12.7571" gradientUnits="userSpaceOnUse">
<stop stop-color="#F82814" stop-opacity="0"/>
<stop offset="1" stop-color="#C0272D"/>
</linearGradient>
<linearGradient id="paint2_linear_84_166" x1="7.2323" y1="11.0563" x2="36.7483" y2="31.2222" gradientUnits="userSpaceOnUse">
<stop stop-color="#CDEC7A"/>
<stop offset="0.2157" stop-color="#B0E995"/>
<stop offset="0.5613" stop-color="#87E4BB"/>
<stop offset="0.8347" stop-color="#6EE1D2"/>
<stop offset="1" stop-color="#65E0DB"/>
</linearGradient>
<linearGradient id="paint3_linear_84_166" x1="38.4118" y1="19.92" x2="35.2239" y2="19.92" gradientUnits="userSpaceOnUse">
<stop stop-color="#CDEC7A" stop-opacity="0"/>
<stop offset="0.2354" stop-color="#9AD57D" stop-opacity="0.235"/>
<stop offset="0.6035" stop-color="#51B482" stop-opacity="0.604"/>
<stop offset="0.8679" stop-color="#239F85" stop-opacity="0.868"/>
<stop offset="1" stop-color="#119786"/>
</linearGradient>
<linearGradient id="paint4_linear_84_166" x1="13.9503" y1="36.259" x2="13.9503" y2="34.3704" gradientUnits="userSpaceOnUse">
<stop stop-color="#CDEC7A" stop-opacity="0"/>
<stop offset="0.2354" stop-color="#9AD57D" stop-opacity="0.235"/>
<stop offset="0.6035" stop-color="#51B482" stop-opacity="0.604"/>
<stop offset="0.8679" stop-color="#239F85" stop-opacity="0.868"/>
<stop offset="1" stop-color="#119786"/>
</linearGradient>
<linearGradient id="paint5_linear_84_166" x1="7.07926" y1="8.67428" x2="32.3498" y2="33.9449" gradientUnits="userSpaceOnUse">
<stop stop-color="#F8F6FB"/>
<stop offset="1" stop-color="#EFDCFB"/>
</linearGradient>
<linearGradient id="paint6_linear_84_166" x1="8.98242" y1="7.85116" x2="33.6298" y2="39.9175" gradientUnits="userSpaceOnUse">
<stop stop-color="#18CEFB"/>
<stop offset="0.2969" stop-color="#2BB9F9"/>
<stop offset="0.7345" stop-color="#42A0F7"/>
<stop offset="1" stop-color="#4A97F6"/>
</linearGradient>
<linearGradient id="paint7_linear_84_166" x1="6.09474" y1="24.5788" x2="16.8927" y2="38.627" gradientUnits="userSpaceOnUse">
<stop stop-color="#CDEC7A"/>
<stop offset="0.2154" stop-color="#B0E995" stop-opacity="0.784"/>
<stop offset="0.5604" stop-color="#87E4BB" stop-opacity="0.439"/>
<stop offset="0.8334" stop-color="#6EE1D2" stop-opacity="0.165"/>
<stop offset="0.9985" stop-color="#65E0DB" stop-opacity="0"/>
</linearGradient>
<linearGradient id="paint8_linear_84_166" x1="15.666" y1="22.3998" x2="28.6891" y2="39.3428" gradientUnits="userSpaceOnUse">
<stop stop-color="#CDEC7A"/>
<stop offset="0.2157" stop-color="#B0E995"/>
<stop offset="0.5613" stop-color="#87E4BB"/>
<stop offset="0.8347" stop-color="#6EE1D2"/>
<stop offset="1" stop-color="#65E0DB"/>
</linearGradient>
<linearGradient id="paint9_linear_84_166" x1="9.32991" y1="10.2407" x2="13.5532" y2="15.7352" gradientUnits="userSpaceOnUse">
<stop stop-color="#FFD945"/>
<stop offset="0.3043" stop-color="#FFCD3E"/>
<stop offset="0.8558" stop-color="#FFAD2B"/>
<stop offset="1" stop-color="#FFA325"/>
</linearGradient>
<clipPath id="clip0_84_166">
<rect width="39.6105" height="39.6105" fill="white" transform="translate(0.223984 -0.00537109)"/>
</clipPath>
</defs>
</svg>
