<svg width="39" height="39" viewBox="0 0 39 39" fill="none" xmlns="http://www.w3.org/2000/svg">
<g clip-path="url(#clip0_84_19)">
<path d="M27.0872 11.8378C29.537 12.0999 32.0014 12.2003 34.4644 12.1386L34.4585 12.129C31.5498 7.73777 27.7936 3.97138 23.4103 1.05066C23.3467 3.52593 23.4472 6.00269 23.7111 8.46468C23.8993 10.0913 25.4598 11.6518 27.0872 11.8378Z" fill="black"/>
<path d="M30.6508 23.6155C29.1684 23.6155 27.7193 24.055 26.4868 24.8786C25.2543 25.7021 24.2936 26.8727 23.7264 28.2422C23.1591 29.6117 23.0107 31.1187 23.2999 32.5726C23.5891 34.0264 24.3029 35.3619 25.3511 36.4101C26.3992 37.4583 27.7347 38.1721 29.1886 38.4613C30.6424 38.7505 32.1494 38.602 33.5189 38.0348C34.8885 37.4675 36.059 36.5069 36.8826 35.2743C37.7061 34.0418 38.1457 32.5927 38.1457 31.1104C38.1457 29.1226 37.356 27.2163 35.9505 25.8107C34.5449 24.4051 32.6385 23.6155 30.6508 23.6155ZM34.2394 30.9692C34.1438 31.0648 34.0303 31.1406 33.9054 31.1924C33.7804 31.2441 33.6466 31.2708 33.5114 31.2708C33.3762 31.2708 33.2423 31.2441 33.1174 31.1924C32.9924 31.1406 32.8789 31.0648 32.7833 30.9692L31.6803 29.8661V34.8321C31.6803 35.1051 31.5718 35.367 31.3787 35.5601C31.1857 35.7532 30.9238 35.8616 30.6508 35.8616C30.3777 35.8616 30.1159 35.7532 29.9228 35.5601C29.7297 35.367 29.6212 35.1051 29.6212 34.8321V29.8698L28.5182 30.9729C28.3251 31.166 28.0632 31.2744 27.7902 31.2744C27.5171 31.2744 27.2552 31.166 27.0621 30.9729C26.8691 30.7798 26.7606 30.5179 26.7606 30.2449C26.7606 29.9718 26.8691 29.7099 27.0621 29.5168L29.9227 26.657C30.0183 26.5614 30.1318 26.4855 30.2568 26.4338C30.3817 26.382 30.5156 26.3554 30.6508 26.3554C30.786 26.3554 30.9199 26.382 31.0448 26.4338C31.1697 26.4855 31.2832 26.5614 31.3788 26.657L34.2394 29.5168C34.335 29.6124 34.4108 29.7259 34.4626 29.8508C34.5143 29.9758 34.541 30.1096 34.541 30.2449C34.541 30.3801 34.5143 30.5139 34.4626 30.6389C34.4108 30.7638 34.335 30.8773 34.2394 30.9729V30.9692Z" fill="black"/>
<path d="M34.5335 14.1057C34.0438 14.1182 33.5547 14.1263 33.0679 14.1263C31.0003 14.1256 28.9342 14.0154 26.8783 13.7961H26.8607C25.6348 13.6541 24.4339 13.046 23.4691 12.0841C22.5043 11.1223 21.8998 9.91845 21.7572 8.69333C21.7575 8.68745 21.7575 8.68155 21.7572 8.67568C21.4841 6.12011 21.3799 3.5493 21.4454 0.980013C17.5814 0.886879 13.7154 1.04606 9.8721 1.45653C7.30492 1.75436 4.84363 4.21638 4.54507 6.78357C3.8722 13.082 3.8722 24.7774 4.54507 31.0758C4.84289 33.643 7.30492 36.105 9.8721 36.4029C14.2305 36.8694 18.6175 37.0122 22.997 36.8301C22.0693 35.5861 21.4575 34.1355 21.2141 32.6029C20.9707 31.0703 21.1031 29.5016 21.5998 28.0314H11.3399C11.0669 28.0314 10.805 27.9229 10.6119 27.7299C10.4188 27.5368 10.3104 27.2749 10.3104 27.0019C10.3104 26.7288 10.4188 26.467 10.6119 26.2739C10.805 26.0808 11.0669 25.9724 11.3399 25.9724H22.5911C23.4088 24.697 24.5149 23.6317 25.8201 22.8625H11.3399C11.0669 22.8625 10.805 22.754 10.6119 22.5609C10.4188 22.3679 10.3104 22.106 10.3104 21.8329C10.3104 21.5599 10.4188 21.298 10.6119 21.105C10.805 20.9119 11.0669 20.8034 11.3399 20.8034H27.2975C27.5705 20.8034 27.8324 20.9119 28.0254 21.105C28.2185 21.298 28.327 21.5599 28.327 21.8329V21.8388C30.4091 21.3233 32.6037 21.5174 34.5629 22.3904C34.6196 19.6555 34.6093 16.7868 34.5335 14.1057ZM22.1528 17.6943H11.3428C11.0698 17.6943 10.8079 17.5858 10.6149 17.3927C10.4218 17.1997 10.3133 16.9378 10.3133 16.6648C10.3133 16.3917 10.4218 16.1298 10.6149 15.9368C10.8079 15.7437 11.0698 15.6352 11.3428 15.6352H22.1528C22.4259 15.6352 22.6877 15.7437 22.8808 15.9368C23.0739 16.1298 23.1823 16.3917 23.1823 16.6648C23.1823 16.9378 23.0739 17.1997 22.8808 17.3927C22.6877 17.5858 22.4259 17.6943 22.1528 17.6943Z" fill="black"/>
</g>
<defs>
<clipPath id="clip0_84_19">
<rect width="37.651" height="37.651" fill="white" transform="translate(0.494644 0.954224)"/>
</clipPath>
</defs>
</svg>
